HIERARCHY
ROOT pelvis
{
  OFFSET 0 100 0
  CHANNELS 6 Xposition Yposition Zposition Zrotation Xrotation Yrotation
  JOINT pelvis_right_femur
  {
    OFFSET -10.78128 -3.44521 -0.5502486
    CHANNELS 3 Zrotation Xrotation Yrotation
    JOINT right_femur_tibia
    {
      OFFSET -0.8047443 -44.0398 -0.1307829
      CHANNELS 3 Zrotation Xrotation Yrotation
      JOINT right_tibia_foot
      {
        OFFSET 3.006224 -47.83518 -5
        CHANNELS 3 Zrotation Xrotation Yrotation
        End Site
        {
          OFFSET 0 -5 15
        }
      }
    }
  }
  JOINT pelvis_left_femur
  {
    OFFSET 10.78128 -3.44521 -0.5502486
    CHANNELS 3 Zrotation Xrotation Yrotation
    JOINT left_femur_tibia
    {
      OFFSET 0.8047443 -44.0398 -0.1307829
      CHANNELS 3 Zrotation Xrotation Yrotation
      JOINT left_tibia_foot
      {
        OFFSET -4.370144 -48.10324 -4.275266
        CHANNELS 3 Zrotation Xrotation Yrotation
        End Site
        {
          OFFSET 0 -5 15
        }
      }
    }
  }
  JOINT pelvis_spine1
  {
    OFFSET 0 6.468898 -3.129235
    CHANNELS 3 Zrotation Xrotation Yrotation
    JOINT spine1
    {
      OFFSET 0 23.15396 4.99043
      CHANNELS 3 Zrotation Xrotation Yrotation
      JOINT spine2
      {
        OFFSET 0 20.79997 -5.064912
        CHANNELS 3 Zrotation Xrotation Yrotation
        JOINT neck
        {
          OFFSET 0 14.38658 9.616178
          CHANNELS 3 Zrotation Xrotation Yrotation
          End Site
          {
            OFFSET 0 20 0
          }
        }
      }
      JOINT right_manubrium
      {
        OFFSET -5.722621 16.35077 3.967754
        CHANNELS 3 Zrotation Xrotation Yrotation
        JOINT right_clavicle
        {
          OFFSET -13.16364 1.694482 -4.693211
          CHANNELS 3 Zrotation Xrotation Yrotation
          JOINT right_humerus
          {
            OFFSET -28.5034 -0.3100689 -2.792744
            CHANNELS 3 Zrotation Xrotation Yrotation
            JOINT right_radius
            {
              OFFSET -25.15693 0.02248979 -1.271978
              CHANNELS 3 Zrotation Xrotation Yrotation
              End Site
              {
                OFFSET -15 0 0
              }
            }
          }
        }
      }
      JOINT left_manubrium
      {
        OFFSET 5.722621 16.35077 3.967754
        CHANNELS 3 Zrotation Xrotation Yrotation
        JOINT left_clavicle
        {
          OFFSET 13.16364 1.694482 -4.693211
          CHANNELS 3 Zrotation Xrotation Yrotation
          JOINT left_humerus
          {
            OFFSET 29.39168 -1.063119 -2.237045
            CHANNELS 3 Zrotation Xrotation Yrotation
            JOINT left_radius
            {
              OFFSET 24.59957 -0.9528479 0.9047498
              CHANNELS 3 Zrotation Xrotation Yrotation
              End Site
              {
                OFFSET 15 -0 -0
              }
            }
          }
        }
      }
    }
  }
}
MOTION
Frames: 17
Frame Time: 0.0416666666667
30.35124 99.16948 241.492 2.146096 -8.614855 -3.190004 0.1763308 21.91359 8.045179 -0 9.70063 -0 6.096756 -14.5374 1.192465 0.2388478 -25.22114 -4.127205 -0 32.50669 -0 -8.470532 -5.910415 19.95566 -1.148945 -0.4018108 10.12998 -1.738819 10.33078 -2.103362 2.353117 21.69868 5.197934 1.892593 -14.71762 6.990332 1.594726 -21.56803 11.8104 80.3997 22.26662 -6.624161 -0 0 25.79448 -26.19541 14.36112 13.27689 4.853438 -15.04249 -3.064757 -93.44313 21.94496 24.58917 0 0 -12.47178 -3.882681 6.613816 16.32059
31.16707 98.46483 248.0299 2.167009 -8.440096 -3.517383 -0.5086958 23.06183 7.968095 -0 14.02114 -0 6.833394 -14.20251 1.281364 -0.1928271 -25.58108 -4.771309 -0 28.57062 -0 -8.385105 -6.195769 19.77192 -1.270882 -0.5987642 10.09201 -2.02791 9.805771 -1.903929 2.443218 21.63061 5.163821 1.709789 -14.78167 7.21071 1.307289 -21.74278 11.49932 80.14556 21.77144 -5.61099 -0 0 26.73227 -26.36497 14.08887 13.54288 4.709884 -14.17277 -3.004058 -93.71163 22.17914 25.39654 0 0 -11.11481 -4.216425 6.557113 16.8528
32.05522 98.00782 254.8575 2.29554 -8.327173 -3.618028 -1.2909 23.37194 7.741347 -0 19.39962 -0 7.459885 -13.13702 1.007743 -1.20581 -24.47 -5.741763 -0 26.38865 -0 -8.249884 -6.496355 19.40353 -1.5215 -0.9495642 9.978215 -2.215678 9.375198 -1.832466 2.549646 21.65759 5.135889 1.54494 -14.79831 7.453032 1.214172 -21.52902 11.15783 80.28378 21.47196 -5.305476 -0 0 26.84004 -26.34991 13.89363 13.60211 4.520093 -13.49058 -3.012679 -93.67048 22.49059 25.64474 0 0 -10.03745 -4.448443 6.559306 17.2933
32.98103 97.92199 261.8573 2.485476 -8.371087 -3.471372 -1.997647 22.54351 7.302175 -0 25.68692 -0 7.878244 -11.67596 0.3135743 -2.515024 -22.00759 -6.818768 -0 25.44118 -0 -8.047409 -6.963219 18.92143 -1.849736 -1.277425 9.717357 -2.308646 9.0656 -1.867347 2.63742 21.8052 5.125563 1.378626 -14.74043 7.704425 1.320069 -20.97463 10.84233 80.78752 21.39395 -5.652484 -0 0 26.1253 -26.13138 13.78468 13.44374 4.322761 -13.09258 -3.082968 -93.24834 22.88304 25.21814 0 0 -9.395372 -4.534935 6.640034 17.56022
33.90576 98.26737 268.837 2.689835 -8.618993 -3.018628 -2.48241 20.36543 6.616375 -0 32.52131 -0 8.024116 -10.16186 -0.7837759 -3.830723 -18.39675 -7.801966 -0 25.10694 -0 -7.777363 -7.700131 18.38414 -2.192839 -1.42981 9.244339 -2.314433 8.879963 -2.000354 2.678756 22.07845 5.142409 1.194051 -14.59649 7.955727 1.595293 -20.15404 10.59019 81.61807 21.53275 -6.555967 -0 0 24.68254 -25.70548 13.7594 13.08124 4.153509 -13.04182 -3.208998 -92.40056 23.3423 24.04587 0 0 -9.296549 -4.441889 6.813026 17.59075
34.80225 99.02147 275.6112 2.866623 -9.003218 -2.233674 -2.689656 16.83265 5.739236 -0 39.00545 -0 7.885725 -8.860457 -2.129986 -4.946183 -13.92622 -8.587458 -0 24.84312 -0 -7.474588 -8.685951 17.80834 -2.490283 -1.360142 8.531564 -2.233936 8.778929 -2.255402 2.672727 22.45179 5.188154 0.989297 -14.37188 8.207933 1.942071 -19.16429 10.38748 82.71609 21.83833 -7.876846 -0 0 22.75309 -25.09914 13.79124 12.57222 4.047664 -13.326 -3.388437 -91.15757 23.83109 22.14756 0 0 -9.763633 -4.163357 7.079934 17.36481
35.65694 100.054 282.0598 2.967511 -9.387241 -1.166985 -2.617888 12.0664 4.790382 -0 43.86685 -0 7.464067 -7.986028 -3.495551 -5.720725 -8.932796 -9.153448 -0 24.17114 -0 -7.194338 -9.825509 17.18102 -2.685386 -1.092548 7.575965 -2.063148 8.695942 -2.676676 2.637177 22.88063 5.257701 0.7730921 -14.08187 8.467315 2.220038 -18.11182 10.19117 84.00412 22.23798 -9.452584 -0 0 20.66436 -24.35771 13.83923 11.99987 4.043822 -13.88879 -3.618994 -89.59894 24.30004 19.59655 0 0 -10.77489 -3.708856 7.435681 16.8844
36.4602 101.1642 288.1422 2.981307 -9.661096 0.08983962 -2.349161 6.357816 3.88929 -0 46.25887 -0 6.77229 -7.587844 -4.730496 -6.133281 -3.720853 -9.541702 -0 22.91032 -0 -6.971428 -11.04534 16.49149 -2.768412 -0.6957694 6.427826 -1.807826 8.578596 -3.272412 2.599624 23.31843 5.333079 0.5614887 -13.75171 8.729918 2.33375 -17.05885 9.966255 85.40066 22.66473 -11.16463 -0 0 18.63757 -23.5268 13.86873 11.41822 4.165704 -14.66242 -3.885114 -87.82318 24.70213 16.51627 0 0 -12.26924 -3.100667 7.870019 16.16743
37.20145 102.1339 293.9096 2.958225 -9.732545 1.44478 -2.062613 0.2513056 3.122983 -0 45.74867 -0 5.849107 -7.527609 -5.781165 -6.270652 1.39942 -9.815994 -0 21.22119 -0 -6.813086 -12.32317 15.74033 -2.798144 -0.2886391 5.215809 -1.487759 8.389537 -3.998402 2.604347 23.70981 5.37278 0.3829861 -13.42338 8.972313 2.233599 -16.01213 9.684287 86.80501 23.05431 -12.94283 -0 0 16.76164 -22.65198 13.84815 10.83936 4.429274 -15.57065 -4.148276 -85.94667 25.00413 13.09206 0 0 -14.15362 -2.373923 8.372617 15.23958
37.87143 102.7646 299.488 2.957517 -9.537504 2.814936 -1.918868 -5.66096 2.513903 -0 42.26512 -0 4.748812 -7.620852 -6.642244 -6.246735 6.157614 -10.02276 -0 19.41347 -0 -6.715799 -13.65178 14.94011 -2.852985 0.0154758 4.086316 -1.12896 8.108171 -4.783895 2.692213 24.00649 5.333428 0.2655077 -13.14069 9.165229 1.91157 -14.9577 9.33396 88.11924 23.35942 -14.73612 -0 0 15.04836 -21.76977 13.75453 10.25323 4.837615 -16.54193 -4.363558 -84.08408 25.19315 9.529038 0 0 -16.31555 -1.565631 8.932459 14.13294
38.46307 102.9273 305.0184 2.991156 -9.103985 4.121867 -1.926984 -10.98196 2.019702 -0 36.43031 -0 3.521171 -7.795559 -7.336756 -6.140164 10.4148 -10.17579 -0 17.83107 -0 -6.680971 -14.98336 14.12868 -2.959539 0.1857659 3.13276 -0.7583532 7.748776 -5.539781 2.864019 24.1974 5.203326 0.2149832 -12.9317 9.289411 1.438568 -13.89958 8.955515 89.28824 23.57523 -16.48507 -0 0 13.44574 -20.88576 13.5911 9.63603 5.35043 -17.5255 -4.499272 -82.33314 25.27283 6.02227 0 0 -18.60166 -0.7048012 9.532071 12.89899
38.96858 102.62 310.6087 3.041638 -8.548254 5.292164 -1.964005 -15.42691 1.582941 -0 29.5351 -0 2.208424 -8.089486 -7.9071 -6.000633 14.11339 -10.26324 -0 16.90559 -0 -6.716764 -16.21115 13.37548 -3.088375 0.2597211 2.412814 -0.4044873 7.358029 -6.147775 3.083424 24.30297 4.998077 0.2184039 -12.81632 9.331192 0.9603896 -12.86683 8.638023 90.287 23.73118 -18.10745 -0 0 11.84719 -19.9748 13.3826 8.947239 5.88037 -18.47887 -4.532626 -80.79172 25.26162 2.789665 0 0 -20.793 0.181625 10.14878 11.61444
39.37847 101.9547 316.3332 3.079469 -7.994538 6.26641 -1.888661 -18.81961 1.203674 -0 22.8432 -0 0.8492509 -8.523164 -8.387822 -5.840519 17.22468 -10.27631 -0 16.98922 -0 -6.827487 -17.20194 12.75102 -3.190128 0.2782734 1.936132 -0.08573506 6.986662 -6.532142 3.311235 24.35547 4.740542 0.2592057 -12.7998 9.285978 0.5953306 -11.89667 8.445887 91.10951 23.8604 -19.5277 -0 0 10.18985 -19.01809 13.15157 8.168647 6.345867 -19.35299 -4.458199 -79.54203 25.19459 0.02290852 0 0 -22.68166 1.062778 10.7612 10.35789
39.68587 101.1092 322.2559 3.048522 -7.550005 7.022754 -1.573897 -21.03912 0.9979049 -0 17.41534 -0 -0.5044656 -8.990857 -8.775788 -5.601253 19.6866 -10.23666 -0 18.34298 -0 -7.014951 -17.75396 12.33193 -3.201417 0.2452635 1.640262 0.1934855 6.682406 -6.708995 3.521883 24.39829 4.451539 0.3249721 -12.86432 9.160242 0.3831243 -11.03223 8.37785 91.76012 23.98191 -20.67047 -0 0 8.536425 -18.02841 12.90731 7.339329 6.688859 -20.05654 -4.294608 -78.67912 25.1253 -2.085781 0 0 -24.05888 1.887401 11.34812 9.217404
39.89245 100.296 328.4407 2.882428 -7.31485 7.592661 -0.9070474 -21.96389 1.14141 -0 14.17835 -0 -1.78817 -9.313389 -9.03465 -5.182655 21.38371 -10.18822 -0 21.19484 -0 -7.275604 -17.62218 12.20909 -3.054062 0.1440969 1.426518 0.4342494 6.49202 -6.74683 3.699145 24.48241 4.149503 0.4066247 -12.97799 8.96629 0.3179847 -10.32413 8.395722 92.24057 24.10482 -21.44964 -0 0 7.033744 -17.04142 12.65174 6.536702 6.861869 -20.46884 -4.075999 -78.31479 25.11717 -3.329834 0 0 -24.70107 2.585787 11.89005 8.292739
40.01337 99.71679 334.9201 2.583361 -7.346638 8.02314 0.09953125 -21.5573 1.670314 -0 13.30906 -0 -2.962588 -9.439721 -9.137037 -4.578876 22.16182 -10.14446 -0 25.54447 -0 -7.568188 -16.74553 12.44774 -2.741945 -0.004614131 1.25935 0.6342556 6.441258 -6.692731 3.837012 24.63878 3.848284 0.4985739 -13.11121 8.719465 0.3750321 -9.822306 8.470553 92.52942 24.23586 -21.80091 -0 0 5.809155 -16.10699 12.38118 5.832879 6.845928 -20.53858 -3.840028 -78.49413 25.20769 -3.624214 0 0 -24.50057 3.104757 12.37922 7.644064
40.08312 99.50188 341.6278 2.248469 -7.67269 8.308567 1.261879 -19.8385 2.420288 -0 14.05193 -0 -4.021923 -9.523572 -9.080653 -3.945864 21.72372 -10.05578 -0 31.13586 -0 -7.785776 -15.30677 13.10126 -2.346566 -0.105701 1.207817 0.780913 6.539718 -6.546037 3.936526 24.87888 3.560512 0.5981409 -13.23509 8.439324 0.5177854 -9.600598 8.598876 92.55444 24.38299 -21.65263 -0 0 4.977825 -15.30603 12.08213 5.303422 6.6484 -20.29936 -3.631517 -79.2066 25.39768 -2.998023 0 0 -23.45323 3.401232 12.81587 7.296715
